<?xml version="1.0" encoding="utf-8"?>
<!-- Generator: Adobe Illustrator 17.0.2, SVG Export Plug-In . SVG Version: 6.00 Build 0)  -->
<!DOCTYPE svg PUBLIC "-//W3C//DTD SVG 1.1//EN" "http://www.w3.org/Graphics/SVG/1.1/DTD/svg11.dtd">
<svg version="1.1" id="Ebene_1" xmlns="http://www.w3.org/2000/svg" xmlns:xlink="http://www.w3.org/1999/xlink" x="0px" y="0px"
	 width="1000px" height="335px" viewBox="0 0 1000 335" enable-background="new 0 0 1000 335" xml:space="preserve">
<polygon fill="#FDC600" points="547.219,0.85 547.219,161.728 1000.182,161.728 "/>
<polygon fill="#FDC600" points="58.696,101.995 103.746,101.995 103.746,60.157 58.696,60.157 58.696,44.804 108.005,44.804 
	108.005,0.852 -0.181,0.852 -0.181,161.729 109.714,161.729 109.714,117.781 58.696,117.781 "/>
<path fill="#FDC600" d="M228.633,99.859v-1.277c21.785-7.264,31.159-17.495,31.159-41.846c0-40.502-30.731-55.888-66.986-55.888
	h-70.63V161.73h57.188v-51.644h1.055l25.596,51.644h67.45l-35.006-52.267C235.263,104.764,231.623,102.222,228.633,99.859
	 M183.401,72.121h-4.037V44.8h4.477c10.024,0,18.784,1.51,18.784,13.875C202.624,70.63,193.005,72.121,183.401,72.121"/>
<path fill="#FDC600" d="M478.917,90.461c0,12.613-0.405,23.673-15.981,23.673c-15.58,0-16.039-11.06-16.039-23.673V0.848h-58.445
	h-122.89v52.298l32.195-1.51v110.093h58.476V51.636l32.218,1.51V96.02c0,46.938,29.446,68.275,74.484,68.275
	c45.003,0,74.457-21.337,74.457-68.275V0.848h-58.476V90.461z"/>
<path fill="#9FA0D0" d="M-0.182,171.555H73.85c37.567,0,65.305,19.196,65.305,59.107c0,32.841-20.481,53.349-53.124,53.349H56.157
	v48.421H-0.182V171.555z M56.157,243.45h5.758c10.223,0,21.334-1.682,21.334-14.723c0-12.567-11.928-13.221-21.548-13.221h-5.544
	V243.45z"/>
<path fill="#9FA0D0" d="M295.043,171.556v95.168c0,46.938-29.447,68.275-74.461,68.275c-45.026,0-74.461-21.337-74.461-68.275
	v-95.168h58.434v89.612c0,12.59,0.448,23.697,16.027,23.697s16.012-11.107,16.012-23.697v-89.612H295.043z"/>
<path fill="#9FA0D0" d="M317.336,274.811l2.966,2.359c10.445,8.121,23.07,14.735,36.481,14.735c5.754,0,14.933-2.34,14.933-9.627
	c0-7.233-7.642-7.868-12.995-8.946l-11.765-2.137c-22.817-4.045-42.017-17.487-42.017-42.671c0-38.198,34.78-59.535,69.762-59.535
	c18.371,0,35.204,4.481,50.99,14.077l-15.786,41.188c-10.021-6.809-21.334-12.158-33.92-12.158c-5.131,0-12.567,1.908-12.567,8.541
	c0,5.952,7.237,6.809,11.71,7.887l13.244,2.99c24.748,5.559,42.671,18.772,42.671,46.093c0,38.396-34.982,57.394-69.762,57.394
	c-20.278,0-43.749-5.555-61.89-14.723L317.336,274.811z"/>
<polygon fill="#9FA0D0" points="438.155,171.556 494.475,171.556 494.475,225.734 530.333,225.734 530.333,171.556 586.645,171.556 
	586.645,332.433 530.333,332.433 530.333,276.522 494.475,276.522 494.475,332.433 438.155,332.433 "/>
<path fill="#9FA0D0" d="M602.405,171.556h56.966l-1.277,69.758h1.277c1.285-6.606,4.925-12.364,8.121-18.141l28.162-51.617h63.81
	l-50.391,78.303l55.697,82.574h-67.855l-27.714-48.647c-3.422-6.182-8.545-12.166-9.83-18.772h-1.277l1.277,67.419h-56.966V171.556z
	"/>
<rect x="765.12" y="171.556" fill="#9FA0D0" width="58.476" height="160.877"/>
<path fill="#9FA0D0" d="M838.774,171.556h56.113l52.473,89.184h1.709c-2.336-13.442-4.905-27.29-4.905-40.958v-48.226h55.896
	v160.877h-55.896l-51.414-84.481h-1.732c1.939,11.079,3.64,21.536,3.64,32.191v52.29h-55.884V171.556z"/>
<polygon fill="#9FA0D0" points="547.219,0.85 1000.182,0.85 1000.182,161.728 "/>
</svg>
